<?xml version="1.0" encoding="utf-8"?>
<!-- Generator: Adobe Illustrator 25.2.1, SVG Export Plug-In . SVG Version: 6.00 Build 0)  -->
<svg version="1.1" id="Layer_1" xmlns="http://www.w3.org/2000/svg" xmlns:xlink="http://www.w3.org/1999/xlink" x="0px" y="0px"
	 viewBox="0 0 1920 1080" style="enable-background:new 0 0 1920 1080;" xml:space="preserve">
<style type="text/css">
	.st0{fill:#5257FF;}
	.st1{fill:none;stroke:#53B0F3;stroke-width:2;stroke-miterlimit:10;}
	.st2{fill:#3E235F;}
	.st3{fill:none;stroke:#5257FF;stroke-width:2;stroke-miterlimit:10;}
	.st4{fill:#53B0F3;}
	.st5{fill:#7152A6;}
	.st6{fill:#E3E1E0;}
	.st7{fill:#FFFFFF;}
	.st8{fill:#FCFCFC;}
</style>
<g>
	<g>
		<path class="st0" d="M378.98,589.12c-4.64-13.66-11.88-25.21-20.78-34.19l7.93-10.76c-9.3-9.39-19.99-16.28-31.76-20.48
			l-3.54,13.6c-11.38-4.06-23.64-5.01-35.79-2.34l-2.24-13.96c-11.91,2.61-23.51,8.24-33.49,16.26l6.87,11.72
			c-10.17,8.16-18.27,18.98-23.87,31.3l-10.72-6.67c-5.79,12.73-9.17,26.45-10.06,40.79l12.09,1.03
			c-0.79,12.77,0.78,25.95,5.05,38.66c0.31,0.92,0.65,1.81,0.98,2.71l-11.15,5.63c4.89,13.26,11.94,24.93,20.97,34.67l8.22-10.43
			c8.95,9.66,19.74,16.61,31.38,20.33l-3.19,13.69c11.9,3.8,24.09,4.63,36.24,2.45l-1.84-14.05c5.45-0.98,10.89-2.65,16.23-5.11
			c6.16-2.83,11.81-6.52,16.92-10.88l7.15,11.47c9.92-8.48,18.07-19.12,24.22-31.64l-10.52-7.08c6-12.22,9.48-26.04,10.01-40.3
			l12.13,0.61c0.53-14.34-1.49-28.43-6.01-41.88l-0.11-0.33L378.98,589.12z M325.96,662.58c-21.28,12.13-46.61-0.79-53.51-27.28
			c-5.43-20.84,3.06-43.66,19.8-53.21c21.28-12.13,46.61,0.79,53.51,27.28C351.19,630.22,342.7,653.04,325.96,662.58z"/>
		<g>
			<path class="st0" d="M659.88,622.12c67.37,90.65,94.78,191.84,61.22,226.01c-33.56,34.17-115.38-11.62-182.75-102.27
				c-67.37-90.65-61.22-226.01-61.22-226.01S592.51,531.47,659.88,622.12z"/>
			<line class="st1" x1="511.96" y1="567.64" x2="695.63" y2="814.79"/>
			<line class="st1" x1="519.03" y1="615.55" x2="558.58" y2="630.38"/>
			<line class="st1" x1="587.59" y1="613.96" x2="584.71" y2="662.46"/>
			<line class="st1" x1="649.45" y1="702.94" x2="650.21" y2="753.45"/>
			<line class="st1" x1="581.9" y1="700.15" x2="621.46" y2="714.98"/>
		</g>
		<path class="st0" d="M1442.61,602.28l-0.12,0.36c-4.95,14.72-7.16,30.15-6.58,45.85l13.28-0.67c0.58,15.61,4.39,30.74,10.96,44.12
			l-11.52,7.75c6.73,13.7,15.65,25.36,26.52,34.63l7.83-12.55c5.59,4.77,11.78,8.81,18.52,11.91c5.85,2.69,11.81,4.52,17.77,5.59
			l-2.02,15.38c13.3,2.39,26.64,1.49,39.67-2.68l-3.5-14.98c12.74-4.07,24.56-11.68,34.35-22.26l9,11.42
			c9.88-10.67,17.61-23.44,22.96-37.95l-12.21-6.16c0.36-0.98,0.73-1.96,1.07-2.96c4.68-13.92,6.4-28.35,5.53-42.33l13.24-1.13
			c-0.98-15.7-4.68-30.72-11.02-44.65l-11.73,7.31c-6.13-13.49-15-25.33-26.14-34.27l7.52-12.84c-10.93-8.77-23.63-14.93-36.66-17.8
			l-2.45,15.29c-13.31-2.93-26.72-1.89-39.18,2.56l-3.88-14.88c-12.89,4.6-24.59,12.14-34.77,22.42l8.68,11.78
			c-9.75,9.84-17.67,22.48-22.75,37.43L1442.61,602.28z M1491.34,630.15c7.56-29.01,35.29-43.15,58.59-29.87
			c18.32,10.45,27.62,35.43,21.68,58.25c-7.56,29.01-35.29,43.15-58.59,29.87C1494.69,677.95,1485.39,652.97,1491.34,630.15z"/>
		<g>
			<path class="st2" d="M1200.65,672.24c-63.4,71.29-136.19,103.02-162.58,70.87c-26.39-32.15,3.6-116.02,67-187.31
				c63.4-71.29,162.58-70.87,162.58-70.87S1264.04,600.95,1200.65,672.24z"/>
			<line class="st3" x1="1234.19" y1="521.83" x2="1061.35" y2="716.21"/>
			<line class="st3" x1="1199.48" y1="530.94" x2="1190.32" y2="571.17"/>
			<line class="st3" x1="1203.55" y1="599.52" x2="1167.98" y2="598.69"/>
			<line class="st3" x1="1141.13" y1="665.22" x2="1104.25" y2="668.13"/>
			<line class="st3" x1="1140.32" y1="597.48" x2="1131.15" y2="637.71"/>
		</g>
		<path class="st4" d="M1442.52,790.47l-0.16,0.63c-6.37,25.56-8.08,51.8-5.06,78.01l22.16-3.49c3,26.05,11.35,50.73,24.11,71.98
			l-18.3,15.05c13.06,21.76,29.53,39.7,48.94,53.31l11.48-22.43c9.99,7,20.89,12.65,32.59,16.65c10.16,3.47,20.37,5.47,30.51,6.2
			l-1.38,26.13c22.59,1.63,44.84-2.26,66.13-11.56l-7.81-24.49c20.81-9.1,39.63-23.95,54.67-43.42l16.57,17.53
			c15.17-19.64,26.45-42.41,33.53-67.69l-21.26-8.15c0.48-1.71,0.97-3.41,1.41-5.15c6.02-24.16,7.04-48.64,3.76-71.92l22.04-4.25
			c-3.68-26.13-11.85-50.64-24.27-72.86l-18.71,14.34c-12.03-21.52-28.43-39.77-48.26-52.76l10.93-22.85
			c-19.46-12.75-41.54-20.81-63.75-23.28l-2.12,26.05c-22.68-2.53-45.02,1.6-65.33,11.27l-8.43-24.25
			c-21,10-39.62,24.73-55.35,43.76l16.08,18.19c-15.05,18.22-26.68,40.81-33.25,66.78L1442.52,790.47z M1512.44,824.79
			c10.86-61.07,65.43-96.08,115.26-73.96c39.2,17.41,62.22,66.56,53.67,114.6c-10.86,61.07-65.43,96.08-115.26,73.96
			C1526.91,921.97,1503.89,872.83,1512.44,824.79z"/>
		<path class="st5" d="M1256.38,624.59l-0.16,0.47c-6.44,19.18-9.33,39.27-8.57,59.71l17.29-0.88c0.75,20.33,5.71,40.04,14.27,57.46
			l-15.01,10.1c8.77,17.85,20.39,33.02,34.53,45.11l10.19-16.35c7.28,6.22,15.34,11.47,24.12,15.51c7.62,3.51,15.38,5.89,23.15,7.28
			l-2.63,20.03c17.32,3.11,34.7,1.94,51.66-3.49l-4.55-19.51c16.59-5.3,31.98-15.21,44.74-28.99l11.72,14.87
			c12.87-13.89,22.93-30.52,29.9-49.43l-15.9-8.02c0.47-1.28,0.95-2.55,1.39-3.86c6.09-18.13,8.34-36.92,7.2-55.13l17.24-1.47
			c-1.27-20.44-6.1-40.01-14.35-58.15l-15.28,9.52c-7.98-17.57-19.53-32.99-34.04-44.63l9.79-16.72
			c-14.23-11.43-30.77-19.45-47.75-23.18l-3.19,19.91c-17.33-3.81-34.8-2.46-51.03,3.33l-5.05-19.38
			c-16.79,5.99-32.02,15.81-45.28,29.19l11.3,15.34c-12.69,12.81-23.01,29.27-29.63,48.75L1256.38,624.59z M1319.85,660.88
			c9.84-37.78,45.97-56.2,76.3-38.9c23.86,13.61,35.97,46.14,28.23,75.86c-9.84,37.78-45.97,56.2-76.3,38.9
			C1324.21,723.14,1312.11,690.6,1319.85,660.88z"/>
		<path class="st4" d="M345.44,779.56c-6.57-25.97-18.2-48.56-33.25-66.78l16.08-18.19c-15.72-19.04-34.35-33.76-55.35-43.76
			l-8.43,24.25c-20.31-9.67-42.65-13.8-65.33-11.27l-2.12-26.05c-22.21,2.47-44.3,10.53-63.75,23.28l10.93,22.85
			c-19.83,12.99-36.23,31.24-48.26,52.76L77.24,722.3c-12.43,22.22-20.59,46.73-24.27,72.86l22.04,4.25
			c-3.28,23.28-2.27,47.76,3.76,71.92c0.43,1.74,0.93,3.44,1.41,5.15l-21.26,8.15c7.07,25.28,18.35,48.06,33.53,67.69l16.57-17.53
			c15.04,19.47,33.86,34.32,54.67,43.42l-7.81,24.49c21.28,9.3,43.53,13.19,66.13,11.56l-1.38-26.13
			c10.13-0.73,20.35-2.73,30.51-6.2c11.7-4,22.6-9.65,32.59-16.65l11.48,22.43c19.41-13.61,35.88-31.55,48.94-53.31l-18.3-15.05
			c12.75-21.24,21.11-45.92,24.11-71.98l22.16,3.49c3.02-26.2,1.31-52.45-5.06-78.01l-0.16-0.63L345.44,779.56z M243.31,921.14
			c-49.83,22.13-104.4-12.89-115.26-73.96c-8.54-48.04,14.47-97.19,53.67-114.6c49.83-22.13,104.4,12.89,115.26,73.96
			C305.52,854.58,282.5,903.73,243.31,921.14z"/>
		<path class="st5" d="M501.23,714.25c-5.87-17.29-15.03-31.9-26.3-43.27l10.03-13.62c-11.77-11.88-25.29-20.6-40.19-25.91
			l-4.48,17.2c-14.41-5.14-29.91-6.34-45.29-2.95l-2.83-17.67c-15.07,3.31-29.75,10.43-42.38,20.57l8.69,14.84
			c-12.87,10.33-23.12,24.01-30.21,39.61l-13.56-8.45c-7.32,16.11-11.6,33.47-12.73,51.61l15.3,1.3
			c-1.01,16.16,0.99,32.84,6.39,48.93c0.39,1.16,0.82,2.29,1.24,3.42L310.79,807c6.18,16.78,15.11,31.54,26.53,43.87l10.4-13.2
			c11.32,12.22,24.99,21.02,39.71,25.72l-4.04,17.32c15.06,4.81,30.48,5.85,45.85,3.09l-2.33-17.78c6.89-1.24,13.78-3.35,20.54-6.46
			c7.79-3.59,14.95-8.24,21.41-13.76l9.05,14.51c12.56-10.73,22.87-24.19,30.65-40.03l-13.32-8.96c7.6-15.46,12-32.95,12.67-51
			l15.35,0.78c0.67-18.15-1.89-35.98-7.61-53l-0.14-0.42L501.23,714.25z M434.13,807.22c-26.92,15.35-58.98-0.99-67.72-34.52
			c-6.87-26.38,3.88-55.25,25.06-67.33c26.92-15.35,58.99,0.99,67.72,34.52C466.05,766.27,455.31,795.14,434.13,807.22z"/>
		<g>
			<polygon class="st6" points="1827.76,1069.77 1825.24,1064.18 1369.58,821.32 839.77,551.21 617.85,777.79 380.74,968.6 
				172.87,1069.77 			"/>
			<g>
				<ellipse class="st6" cx="832.97" cy="637.74" rx="120.38" ry="140.9"/>
				<ellipse class="st6" cx="928.95" cy="507.62" rx="61.18" ry="71.6"/>
				<ellipse class="st6" cx="693.17" cy="743.32" rx="97.22" ry="113.79"/>
				<ellipse class="st6" cx="362.62" cy="874.32" rx="72.71" ry="85.1"/>
				<ellipse class="st6" cx="519.14" cy="811.6" rx="137.99" ry="161.51"/>
				<path class="st6" d="M379.18,1069.77c1.28-10.38,1.97-20.98,1.97-31.77c0-121.9-84.43-220.72-188.58-220.72
					C88.43,817.28,4,916.1,4,1038.01c0,10.79,0.69,21.39,1.97,31.77H379.18z"/>
			</g>
			<g>
				<ellipse class="st6" cx="1032.74" cy="629.65" rx="130.18" ry="152.37"/>
				<ellipse class="st6" cx="1225.83" cy="743.32" rx="97.22" ry="113.79"/>
				<ellipse class="st6" cx="1556.38" cy="874.32" rx="72.71" ry="85.1"/>
				<ellipse class="st6" cx="1399.86" cy="811.6" rx="137.99" ry="161.51"/>
				<path class="st6" d="M1913.03,1069.77c1.28-10.38,1.97-20.98,1.97-31.77c0-121.9-84.43-220.72-188.58-220.72
					c-104.15,0-188.58,98.82-188.58,220.72c0,10.79,0.69,21.39,1.97,31.77H1913.03z"/>
			</g>
		</g>
		<path class="st7" d="M1577.82,884.63c45.45,19.21,71.11,74.09,62.25,127.93c2.41-5.14,4.53-10.56,6.28-16.25
			c18.16-58.89-7.9-123.87-58.21-145.13c-50.32-21.26-105.83,9.25-123.99,68.14c-1.75,5.69-3.09,11.44-4.03,17.19
			C1482.67,888.47,1532.36,865.43,1577.82,884.63z"/>
		<path class="st7" d="M821.08,651.81c41.6-1.98,77.31,32.04,85.2,78.36c0.5-5.02,0.68-10.14,0.5-15.35
			c-1.87-53.89-40.72-95.81-86.76-93.62c-46.04,2.19-81.85,47.66-79.98,101.55c0.18,5.21,0.71,10.3,1.56,15.25
			C746.24,691.09,779.48,653.79,821.08,651.81z"/>
		<path class="st7" d="M1115.63,702.01c32.6,6.58,55.51,39.98,55.04,77.51c1.1-3.8,1.97-7.75,2.57-11.83
			c6.22-42.24-17.99-82.39-54.08-89.67s-70.39,21.06-76.61,63.3c-0.6,4.08-0.91,8.14-0.96,12.16
			C1051.89,717.93,1083.03,695.43,1115.63,702.01z"/>
		<path class="st8" d="M192.4,924.21c65.47,0,119.91,55.09,131.42,127.81c1.47-9.3,2.28-18.88,2.28-28.69
			c0-86.43-59.86-156.5-133.71-156.5s-133.7,70.07-133.7,156.5c0,9.81,0.81,19.38,2.28,28.69
			C72.49,979.3,126.93,924.21,192.4,924.21z"/>
		<path class="st7" d="M624.48,773.63c-4.8-14.12-12.28-26.05-21.48-35.33l8.19-11.12c-9.61-9.7-20.65-16.82-32.82-21.16
			l-3.66,14.05c-11.76-4.2-24.43-5.17-36.99-2.41l-2.31-14.43c-12.3,2.7-24.29,8.52-34.61,16.8l7.1,12.12
			c-10.51,8.44-18.88,19.61-24.67,32.34l-11.07-6.9c-5.98,13.15-9.48,27.33-10.4,42.15l12.5,1.06c-0.82,13.2,0.81,26.82,5.22,39.95
			c0.32,0.95,0.67,1.87,1.01,2.8l-11.52,5.82c5.05,13.7,12.34,25.76,21.67,35.83l8.49-10.78c9.25,9.98,20.4,17.16,32.43,21.01
			l-3.3,14.14c12.29,3.93,24.89,4.78,37.44,2.53l-1.9-14.52c5.63-1.01,11.25-2.74,16.77-5.28c6.36-2.93,12.21-6.73,17.48-11.24
			l7.39,11.85c10.25-8.76,18.67-19.76,25.03-32.69l-10.88-7.32c6.2-12.63,9.8-26.91,10.34-41.64l12.53,0.63
			c0.55-14.82-1.54-29.38-6.21-43.28l-0.11-0.34L624.48,773.63z M569.69,849.55c-21.99,12.54-48.17-0.81-55.3-28.19
			c-5.61-21.54,3.16-45.12,20.46-54.98c21.99-12.54,48.17,0.81,55.3,28.19C595.76,816.11,586.99,839.69,569.69,849.55z"/>
		<path class="st7" d="M1389.43,808.88c-3.6-10.6-9.22-19.56-16.13-26.54l6.15-8.35c-7.22-7.29-15.51-12.63-24.65-15.89l-2.75,10.55
			c-8.84-3.15-18.34-3.89-27.78-1.81l-1.74-10.84c-9.24,2.03-18.24,6.4-25.99,12.62l5.33,9.1c-7.9,6.34-14.18,14.73-18.53,24.29
			l-8.32-5.18c-4.49,9.88-7.12,20.53-7.81,31.65l9.39,0.8c-0.62,9.91,0.61,20.14,3.92,30.01c0.24,0.71,0.5,1.4,0.76,2.1l-8.65,4.37
			c3.79,10.29,9.27,19.35,16.27,26.91l6.38-8.1c6.94,7.5,15.32,12.89,24.35,15.78l-2.48,10.62c9.23,2.95,18.7,3.59,28.12,1.9
			l-1.43-10.9c4.23-0.76,8.45-2.06,12.6-3.96c4.78-2.2,9.17-5.06,13.13-8.44l5.55,8.9c7.7-6.58,14.03-14.84,18.8-24.55l-8.17-5.5
			c4.66-9.48,7.36-20.21,7.77-31.28l9.41,0.48c0.41-11.13-1.16-22.07-4.67-32.5l-0.09-0.26L1389.43,808.88z M1351.19,872.85
			c-20.19,11.51-44.22-0.75-50.77-25.88c-5.15-19.78,2.91-41.43,18.79-50.48c20.19-11.51,44.22,0.75,50.77,25.88
			C1375.12,842.15,1367.07,863.8,1351.19,872.85z"/>
		<ellipse class="st6" cx="482.04" cy="942.17" rx="125.42" ry="146.79"/>
		<ellipse class="st6" cx="1345.55" cy="933.02" rx="92.32" ry="108.06"/>
	</g>
</g>
</svg>
