<?xml version="1.0" encoding="utf-8"?>
<!-- Generator: Adobe Illustrator 25.2.1, SVG Export Plug-In . SVG Version: 6.00 Build 0)  -->
<svg version="1.1" id="Layer_1" xmlns="http://www.w3.org/2000/svg" xmlns:xlink="http://www.w3.org/1999/xlink" x="0px" y="0px"
	 viewBox="0 0 700 1000" style="enable-background:new 0 0 700 1000;" xml:space="preserve">
<style type="text/css">
	.st0{fill:#3E235F;}
	.st1{fill:#DE6A39;}
	.st2{fill:#FFCE42;}
	.st3{fill:#5257FF;}
	.st4{fill:#53B0F3;}
	.st5{fill:#FFFFFF;}
	.st6{fill:none;stroke:#FFFFFF;stroke-miterlimit:10;}
</style>
<path class="st0" d="M124.13,778.92c0-66.3,40.97-120.05,91.5-120.05c50.53,0,91.5,53.75,91.5,120.05s-91.5,195.77-91.5,195.77
	S124.13,845.22,124.13,778.92"/>
<path class="st0" d="M592,778.92c0,66.3-91.5,195.77-91.5,195.77S409,845.22,409,778.92s40.97-120.05,91.5-120.05
	C551.03,658.87,592,712.61,592,778.92z"/>
<path class="st1" d="M443.59,819.82c0,56.62-78.14,167.18-78.14,167.18s-78.14-110.57-78.14-167.18
	c0-56.62,34.98-102.52,78.14-102.52C408.61,717.3,443.59,763.2,443.59,819.82z"/>
<path class="st2" d="M414.05,794.18c0,35.21-48.59,103.97-48.59,103.97s-48.59-68.76-48.59-103.97c0-35.21,21.76-63.76,48.59-63.76
	C392.3,730.42,414.05,758.97,414.05,794.18z"/>
<path class="st3" d="M520.09,594.28c0,202.75-69.23,185.37-154.63,185.37s-154.63,17.38-154.63-185.37
	C210.82,391.53,280.06,0,365.46,0S520.09,391.53,520.09,594.28z"/>
<path class="st3" d="M296.96,174.15c20.64-51.09,43.9-83.57,68.49-83.57c24.6,0,47.85,32.48,68.5,83.57h29.31
	C436.61,73.93,402.56,0,365.46,0s-71.16,73.93-97.8,174.15H296.96z"/>
<path class="st4" d="M365.46,658.49c-76.82,0-140.53,13.97-152.56-130.8c-1.36,23.71-2.07,46.12-2.07,66.59
	c0,202.75,69.23,185.37,154.63,185.37c85.4,0,154.63,17.38,154.63-185.37c0-20.46-0.72-42.87-2.07-66.59
	C505.99,672.46,442.28,658.49,365.46,658.49z"/>
<ellipse class="st5" cx="365.46" cy="278.77" rx="58.33" ry="56.81"/>
<g>
	<line class="st6" x1="266.79" y1="427.87" x2="466.67" y2="427.87"/>
	<line class="st6" x1="266.79" y1="467.16" x2="466.67" y2="467.16"/>
	<line class="st6" x1="266.79" y1="506.45" x2="466.67" y2="506.45"/>
</g>
</svg>
