<?xml version="1.0" encoding="utf-8"?>
<!-- Generator: Adobe Illustrator 25.2.1, SVG Export Plug-In . SVG Version: 6.00 Build 0)  -->
<svg version="1.1" id="Layer_1" xmlns="http://www.w3.org/2000/svg" xmlns:xlink="http://www.w3.org/1999/xlink" x="0px" y="0px"
	 viewBox="0 0 700 1000" style="enable-background:new 0 0 700 1000;" xml:space="preserve">
<style type="text/css">
	.st0{fill:#F4ECE2;}
	.st1{fill:#DAE9F2;}
	.st2{fill:#FE7F00;}
	.st3{fill:#EADBC9;}
	.st4{fill:#DA5240;}
	.st5{fill:#18518B;}
	.st6{fill:#FE6700;}
	.st7{fill:#FEFEFE;}
	.st8{fill:#FE5B00;}
	.st9{fill:#6A5753;}
</style>
<path class="st0" d="M243.09,229.96c2.28-2.29,2.06-5.52,2.7-8.33c3.77-16.8,8.15-33.42,13.34-49.82
	c4.17-13.19,8.7-26.22,13.7-39.08c4.81-12.45,10.02-24.74,15.85-36.71c4.71-9.69,9.56-19.32,14.33-28.96
	c7.93,3.26,16.29,4.82,24.56,6.78c0.96,0.64,1.98,1.09,3.15,0.89c6.39,0.54,12.78,0.78,19.21,0.72c3.61-0.04,7.21-0.31,10.8-0.7
	c1.34,0.14,2.62-0.06,3.73-0.91c5.37-1.18,10.82-2.1,16.13-3.61c3.95-1.11,7.93-2.14,11.34-4.66c3.03,6.18,6.01,12.41,9.14,18.55
	c5.69,11.09,10.5,22.63,15.43,34.1c5.03,11.67,9.4,23.62,13.48,35.66c4.29,12.62,7.99,25.42,11.46,38.3
	c3.55,13.11,6.41,26.37,9.18,39.66c0.86,4.06,0.88,8.33,2.68,12.18c1.92,3.75,1.78,7.92,2.32,11.96
	c-0.98,35.6-5.69,70.71-14.57,105.11c-6.57,25.48-15.43,50.11-27.99,73.16c-8.94,16.43-19.37,31.79-32.88,44.63
	c-6.75,6.41-14.06,12.1-22.36,16.24c-1.46,0.72-3.09,2.23-4.65,0.06c-0.64-1.75-0.48-3.59-0.48-5.4c-0.02-13.71,0-27.4-0.02-41.1
	c0-1.46,0.06-2.91-0.18-4.35c-0.4-2.45-1.7-3.98-4.21-4.08c-4.11-0.16-8.23-0.14-12.34-0.02c-2.82,0.08-4.17,1.94-4.75,4.51
	c-0.38,1.67-0.3,3.38-0.3,5.07c0,15.65,0,31.27,0,46.92c0,1.81,0.14,3.65-0.36,5.42c-0.5,1.57-1.82,1.79-3.13,1.81
	c-10.9,0.16-21.4-1.26-31.56-5.96c-9.9-4.58-18.55-10.9-26.61-18.14c-8.19-7.36-15.01-16.02-21.18-25.19
	c-5.01-7.46-9.76-15.13-13.54-23.38c-1.18-4.23-1.16-8.64-1.76-12.97c-2.84-27.17-3.55-54.46-2.68-81.71
	c1.02-31.29,4.11-62.4,10.12-93.13C241.15,238.93,241.41,234.29,243.09,229.96z"/>
<path class="st1" d="M734.66,888.85c1.18,6.02,3.39,11.75,4.57,17.83c1.46,7.61,2.68,15.17,2.52,22.94
	c-0.04,1.55-0.36,3.22,1.36,4.16c-0.62,3.65-0.16,7.36-0.58,11.03c-0.16,1.28-0.1,2.64-0.98,3.73c-2.08,9.3-3.99,18.64-6.89,27.71
	c-0.76,3.38-2.02,6.53-3.57,9.59c-0.54,1.05-0.82,2.27-2.06,2.74c-5.69,0.62-11.38,0.78-17.07-0.08c-2.1-1.59-0.86-3.26,0.06-4.74
	c5.87-9.4,9.78-19.62,11.86-30.55c4.87-25.77,1.34-50.09-11.76-72.87c-8.03-13.96-19.17-24.35-32.76-32.16
	c-2.38-1.36-4.93-2.29-7.55-3.05c-8.01-2.33-15.91-5.11-24.44-4.8c-6.49,0.23-21.54,4.1-26.73,7.11c-0.14,0.78,0.42,1.05,0.94,1.32
	c24.98,12.64,37.15,34.34,40.49,61.88c1.72,14.18-0.74,28.06-6.01,41.31c-0.56,1.42-1.18,3.48-2.95,3.01
	c-1.5-0.39-1.22-2.47-1.06-3.88c1.5-12.82-0.48-25.15-5.11-37.02c-5.57-14.29-14.11-26.06-27.01-34.36
	c-10.16-6.56-21.1-10.33-32.9-10.06c-10.76,0.25-20.86,3.65-30.23,9.59c-9.26,5.85-16.35,13.65-22.1,22.98
	c-0.86,1.4-1.72,4.04-3.67,3.05c-1.52-0.76-0.26-3.11,0.08-4.68c4.31-19.91,14.35-36.03,30.81-47.39
	c9.68-6.68,20.5-10.76,32.46-10.47c1.14,0.02,2.34,0.35,3.75-0.6c-2.14-4.16-4.91-7.87-7.71-11.52c-5.65-7.36-12.3-13.77-19.8-18.99
	c-8.4-5.81-17.49-10.14-27.57-12.45c-8.94-2.04-17.75-3.34-26.83-1.83c-3.13,0.52-6.11,1.73-9.22,2.27
	c-3.55,0.62-4.23,0.23-4.53-3.44c-0.56-6.84-2.02-13.38-5.53-19.34c-4.91-8.31-11.9-13.17-21.32-14.29
	c-4.75-0.56-4.57-0.62-3.93-5.36c2.02-15.34-1.18-29.42-11.28-40.98c-11.98-13.71-28.97-15.23-43.88-8.02
	c-3.95,1.9-6.89,5.42-9.8,8.76c-0.7,0.8-1.3,1.73-2.14,2.41c-1.36,1.11-2.34,0.78-2.99-0.82c-0.66-1.61-0.72-3.32-0.66-5.01
	c0.36-10.8-0.62-21.56-0.88-32.34c-0.3-13.19-0.86-26.39-1.36-39.58c-0.5-13.07-0.8-26.16-1.48-39.21c-0.42-8.1,0.1-16.24-1.06-24.3
	c-0.22-1.53-0.36-3.2,1.22-4.27c4.63-0.89,9.26-0.87,13.92-0.04c2.4,2.54,2.02,5.94,2,8.88c-0.04,9.09,0.64,18.16,0.96,27.23
	c0.58,16.45,0.96,32.9,1.88,49.35c0.44,7.73,0.26,15.5,0.8,23.23c0.3,4.31,0.06,4.21,3.99,3.38c6.45-1.34,12.9-2.43,19.55-1.24
	c12.4,2.21,22.86,8.14,31.32,17.48c10.36,11.46,15.71,25.42,17.09,40.98c0.2,2.19,0.96,3.5,2.89,4.49
	c11.22,5.63,18.57,14.95,23.14,26.7c1.06,2.74,2.4,3.55,5.25,3.38c11.56-0.72,22.88,0.45,33.9,4.66c6.73,2.58,13.32,5.24,19.53,9.05
	c9.04,5.55,17.09,12.27,24.22,20.26c4.47,5.01,8.68,10.18,12.1,16.02c1.38,2.35,3.15,2,5.17,1.09c6.69-3.01,13.46-5.55,20.76-6.68
	c11.8-1.83,23.6-1.44,34.86,2.12c11.64,3.67,22.86,8.82,32.04,17.6c1.54,1.48,3.37,2.62,5.03,4c2.95,2.74,5.47,5.94,8.6,9.03
	c0.58-1.65,0.36-3.07,0.36-4.45c0.02-115.21,0-230.42,0.04-345.62c0-2.49-0.58-5.11,0.94-7.42c2.06-0.1,1.66,1.67,1.86,2.8
	c0.3,1.79,0.14,3.63,0.14,5.44c0,115.6,0.02,231.19-0.06,346.79c0,4.56,0.92,8.43,3.53,12.18
	C728.23,871.95,732.44,879.92,734.66,888.85z"/>
<path class="st2" d="M391.92,65.59c-0.26,1.94-1.66,2.62-3.21,3.15c-7.89,2.7-15.89,4.82-24.18,5.73c-0.9,0.72-2.18,0.37-3.01,1.22
	c-10.52,1.32-21.02,0.99-31.54-0.06c-0.74-0.49-1.64-0.62-2.32-1.2c-7.67-1.03-15.11-3.01-22.46-5.44c-0.94-0.31-2.14-0.49-2.2-1.94
	c8.27-14.95,16.89-29.68,26.07-44.05c4.69-7.32,9.66-14.45,14.59-21.58c2.04-2.97,6.49-2.91,8.48,0.08
	c6.37,9.48,12.94,18.86,18.95,28.59c6.53,10.53,13.02,21.13,18.69,32.2C390.41,63.42,391.23,64.47,391.92,65.59z"/>
<path class="st3" d="M454.69,256.29c1.6,6.29,1.94,12.8,2.74,19.21c1.88,15.07,2.93,30.22,3.73,45.41
	c0.96,18.16,0.68,36.3,0.34,54.44c-0.24,12.51-1.66,25-2.54,37.52c1.02,1.15,0.58,2.49,0.46,3.81
	c-3.51,36.16-10.32,71.63-20.24,106.49c-0.9,2.1-1.38,4.35-2.14,6.49c-1.5,4.21-4.19,6.86-8.7,7.19
	c-19.21,0.35-38.41,0.06-57.62,0.14c-4.09,0.02-8.21,0.02-12.3-0.02c-1.62-0.02-3.29,0.12-4.73-0.97c-0.94-1.22-0.98-2.68-0.98-4.12
	c-0.06-10.6-0.06-21.19,0-31.79c0-1.55-0.1-3.17,1.24-4.35c8.39-3.32,15.51-8.68,22.22-14.68c6.89-6.14,12.94-13.01,18.67-20.37
	c6.49-8.35,12.1-17.23,17.15-26.43c5.53-10.06,10.38-20.53,14.55-31.31c5.25-13.58,9.74-27.42,13.46-41.5
	c3.75-14.29,6.75-28.78,9.02-43.39c2.2-14.02,3.73-28.12,4.81-42.26C454.31,269.36,455.13,262.84,454.69,256.29z"/>
<path class="st3" d="M235.48,431.71c6.33,11.5,13,22.76,21.12,33.02c4.81,6.06,10.2,11.5,15.91,16.7
	c7.95,7.26,16.93,12.66,26.49,17.13c4.47,2.08,9.4,2.89,14.23,3.75c5.45,0.97,10.96,0.8,16.47,0.74c1.26,1.05,1.22,2.58,1.24,4
	c0.06,8.6,0.06,17.19,0,25.79c0,1.34-0.08,2.68-0.9,3.81c-1.18,1.01-2.6,1.05-3.99,1.05c-20.98-0.02-41.97,0.19-62.95-0.08
	c-4.45,0.47-6.93-2.08-8.52-5.96c-0.56-1.32-1.12-2.66-1.58-4.02c-3.19-12.88-6.79-25.66-9.46-38.67
	c-3.65-17.75-6.63-35.62-8.88-53.62C234.5,434.06,234.22,432.68,235.48,431.71z"/>
<path class="st4" d="M329.73,536.22c-0.02-11.07-0.02-22.12-0.04-33.19c0.08-13.56,0.14-27.11,0.22-40.67
	c0.04-5.57,0.08-11.13,0.16-16.7c0.08-4.78,2.04-6.78,6.55-6.78c3.51,0,7.03,0,10.56,0c5.25,0,6.71,1.48,6.71,7.13
	c0,13.56-0.06,27.11-0.08,40.67c0,3.03,0.06,6.04,0.1,9.07c-0.04,13.38-0.06,26.78-0.1,40.16c1.12,1.15,1.1,2.64,1.1,4.08
	c0,11.63,0.16,23.25-0.06,34.88c0.56,8.49-0.64,16.92-0.78,25.4c-0.06,3.88-1.86,5.83-5.59,6.27c-4.79,0.56-9.62,0.49-14.41,0.04
	c-3.35-0.33-5.25-2.56-5.83-6.31c-0.42-2.76-0.5-5.61-0.14-8.35c0.72-5.67,0.52-11.38,0.68-17.05c-0.22-11.5-0.06-23.03-0.08-34.53
	C328.7,538.9,328.94,537.48,329.73,536.22z"/>
<path class="st5" d="M386.95,198.01c-5.25,10.72-12.94,18.43-24.16,22.63c-5.85,2.19-11.62,2.89-17.47,2.08
	c-12.14-1.65-22.52-6.93-30.41-16.99c-12.04-15.38-14.95-32.86-10.58-51.6c3.33-14.2,10.44-26.08,22.82-34.26
	c12.02-7.94,24.54-8.7,37.03-2.58c8.8,4.31,15.91,11.21,19.94,20.82c0.08,0.16-0.08,0.43-0.24,1.15
	c-5.93-6.78-13.12-10.86-21.54-12.53c-2.38-1.15-4.75-1.13-7.15-0.02c-2.02,0.52-4.09,0.93-6.07,1.59
	c-10.7,3.63-17.07,11.79-21.34,22.08c-5.15,10.41-7.01,21.23-4.29,32.76c3.87,16.49,17.61,28.16,34.06,28.47
	c10.32,0.19,18.93-4.04,25.91-11.83c0.8-0.89,1.38-1.98,2.48-2.54C386.53,197.12,387.05,197.12,386.95,198.01z"/>
<path class="st2" d="M386.43,197.31c-11.3,16.22-29.45,18.33-43.28,11.98c-10.26-4.72-17.19-13.17-20.24-24.35
	c-2.7-9.87-2.34-19.83,1.7-29.46c0.8-1.92,1.7-3.67,3.15-5.11c-1.1,6.29-2.66,12.53-1.46,19.01c1.6,8.68,5.57,15.58,13.08,20.37
	c6.67,4.27,13.6,5.67,21.02,3.32c14.25-4.49,22.18-18.51,19.09-33.62c-2.26-10.99-8.74-18.47-19.23-22.04
	c-0.42-0.14-0.76-0.49-1.22-0.8c4.65-0.7,11.72,1.46,15.33,4.23c3.37,2.56,6.97,4.7,9.68,8.2c9.78,12.53,11.88,26.16,6.15,41.08
	c-0.6,1.57-0.72,3.32-1.84,4.66C388.03,195.85,387.35,196.69,386.43,197.31z"/>
<path class="st6" d="M235.48,431.71c0.66,9.15,2.16,18.22,3.59,27.25c3.55,22.16,8.15,44.09,14.37,65.66
	c0.3,1.01,0.18,2.14,0.24,3.22c-4.79,5.83-6.65,12.88-8.07,20.16c-0.18,0.97-0.24,2.25-1.62,2.49c-1.74-1.22-1.96-3.24-2.46-5.07
	c-7.77-29.52-13.06-59.53-16.57-89.88c-0.7-6.02-1.12-12.04-1.84-18.06c-0.28-2.43-0.1-4.82,0.92-7.09
	c3.29-3.81,5.91-8.23,9.74-11.54C234.36,423.14,234.92,427.42,235.48,431.71z"/>
<path class="st7" d="M329.65,575.08c-0.08,7.85-0.2,15.69-0.22,23.54c-0.02,5.55,1.24,6.76,6.61,6.76c3.63,0,7.27,0.02,10.88,0
	c5.07-0.04,6.19-1.24,6.29-6.39c0.14-8.08,0.34-16.16,0.5-24.26c0.96-0.52,1.98-0.76,3.03-0.76c11.94-0.04,23.86-1.24,35.82-0.74
	c1.5,0.06,3.09-0.12,4.23,1.26c0.82,14,1.1,28.01,1.54,42.03c0.42,12.92,0.94,25.85,1.4,38.75c0.48,13.52,0.92,27.07,1.48,40.57
	c0.26,6.41,0.34,12.8,0.52,19.21c0.04,1.57,0.24,3.05,1.26,4.66c2.89-3.15,5.57-6.29,8.54-9.15c4.89-4.7,10.82-6.37,16.89-7.19
	c6.49-0.87,13.1-0.37,19.35,2.43c6.25,2.8,11.16,7.11,15.37,12.62c5.33,6.93,8.27,14.78,9.42,23.38c0.76,5.63,0.96,11.34-0.38,16.94
	c-0.5,2.08-0.18,2.66,2,2.78c13.06,0.72,21.24,8.37,26.15,20.3c1.94,4.7,2.87,9.71,2.89,14.82c0,2.56,0.86,2.72,2.99,2.08
	c7.51-2.27,15.17-3.77,23.04-3.01c10.36,1.01,20.52,3.38,29.93,7.92c7.13,3.44,13.94,7.87,19.86,13.38
	c7.83,7.28,14.81,15.34,20,24.92c0.22,0.39,0.28,0.89,0.56,1.81c-6.69-0.31-13.08,0-19.27,1.77c-9.24,2.64-17.51,7.28-24.74,13.77
	c-8.01,7.19-14.33,15.67-18.63,25.85c-2.72,6.45-4.55,13.05-6.19,20.86c3.77-5.07,6.23-9.87,9.7-13.91c4.03-4.7,8.6-8.7,13.52-12.47
	c7.13-5.48,15.43-7.96,23.66-10.08c7.23-1.86,14.85-1.86,22.36,0.76c5.07,1.77,10.54,2.58,15.23,5.36c4.69,2.8,9.4,5.55,13.44,9.52
	c3.47,3.42,6.83,6.89,9.68,10.88c7.05,9.87,11.62,20.84,13.7,32.88c1.46,8.43,2.18,16.92,0.84,25.54c2.95-2.58,3.23-6.33,4.41-9.56
	c3.91-10.84,4.71-22.2,3.85-33.58c-0.8-10.66-3.77-20.88-8.66-30.34c-6.83-13.19-16.35-23.64-29.41-30.49
	c-1.6-0.82-4.57-0.62-4.51-2.72c0.08-2.31,3.03-2.1,4.81-2.72c8.46-3.03,16.99-6.16,26.09-5.63c11.58,0.7,22.56,3.75,32.88,9.56
	c6.15,3.46,11.8,7.61,16.65,12.51c9.52,9.63,16.77,21.07,21.44,34.08c5.01,14,7.37,28.51,6.31,43.37
	c-1.16,16.33-5.37,31.81-14.23,45.64c-0.66,1.03-1.36,1.98-1.18,3.3c-8.56,0.08-17.15,0.62-25.67,0.12
	c-10.7-0.6-14.93,6.68-13.52,16.49c-3.35,0-6.71,0-10.08-0.02c-0.32-0.31-0.58-0.66-0.76-1.07c-0.6-1.75-0.34-3.61-0.72-5.38
	c-1.1-5.38-4.01-8.2-9.28-8.93c-1.64-0.23-3.27-0.19-4.91-0.19c-16.19,0-32.38,0-48.57,0c-1.76,0-3.51,0.1-5.25-0.25
	c-3.01-1.01-3.73-4.18-5.37-6.43c-1.24-1.69-1.92-1.77-3.51-0.49c-3.89,3.09-7.11,7.07-11.58,9.4c-1.32,0.68-2.56,1.88-4.23,0.93
	c-3.41-2.43-7.25-3.2-11.32-3.17c-17.09,0.04-34.18,0.08-51.27-0.02c-5.39-0.04-9.94,1.36-13,6.25c-1.26,0.93-2.44,0.52-3.59-0.23
	c-0.8-0.52-1.5-1.18-2.34-1.63c-5.57-3.11-5.13-3.05-8.8,1.15c-2.84,3.26-6.63,5.4-9.86,8.2c-1.6,1.38-2.82,1.11-3.23-1.13
	c-0.2-1.07-0.36-2.14-0.76-3.17c-2.46-7.21-5.33-9.28-12.74-9.5c-5.25-0.14-10.54,0.68-15.75-0.56c-1.42-1.75-0.24-3.46,0.16-5.11
	c5.85-24.55,3.27-48.01-8.42-70.79c-3.37,11.13-7.91,21.21-14.67,30.06c-10.82,14.12-24,24.51-41.23,29.35
	c-10.1,2.82-20.08,3.85-30.21,1.86c-15.05-2.99-28.55-9.65-39.49-20.94c-4.93-5.09-9.66-10.47-13.26-16.86
	c-0.34,2.19-0.92,4.16-1.14,6.23c-0.12,1.07-0.28,2.35-1.68,2.37c-1.44,0.02-1.7,1.11-2.12,2.08c-3.23,7.36-7.85,13.77-13.28,19.54
	c-3.03,3.24-6.51,6.06-10.2,8.31c-12.8,7.77-26.55,11.17-41.23,7.03c-5.97-1.67-11.78-4.18-17.03-7.67
	c-3.13-2.08-5.21-5.01-5.83-9.09c-0.92-5.92-3.57-11.21-6.59-17.54c-8.39,21.85-22.88,35.77-44.32,41.52
	c-1.18,0.25-2.36,0.35-3.55,0.29c-4.83-0.06-9.64,0.04-14.47-0.04c-0.6,0.02-1.18-0.08-1.76-0.21
	c-15.15-4.25-27.87-12.27-37.19-26.74c-3.25,10.64-2.42,20.51-2.16,30.34c-0.02,1.96-0.62,3.75-1.22,5.57
	c-0.94,2.14,0.4,4.8-1.4,6.76c-0.12,0-0.24,0.02-0.34,0.02c-2.44,0-4.99,0.47-7.27-0.12c-3.29-0.87-0.24-4.62-2.1-6.39
	c-0.94-0.41-1.42-1.28-1.76-2.16c-1.98-5.15-6.03-6.78-10.94-6.91c-4.33-0.1-8.68-0.04-13.02-0.04c-12.9,0-25.79,0-38.71,0
	c-10.62,0-12.42,1.34-15.61,11.65c-1.58,1.34-2.56-0.19-3.63-0.87c-4.03-2.6-6.29-6.89-8.88-10.7
	c-9.72-14.31-14.97-30.28-16.53-47.72c-1.8-20.2,2.16-39.13,10.98-56.98c5.21-10.53,12.22-19.73,21.16-27.38
	c9.62-8.22,20.32-13.58,32.52-16.49c7.97-1.92,15.75-2.45,23.72-1.2c3.23,0.52,6.29,1.94,9.48,2.7c0.8,0.19,1.78,0.49,1.9,1.42
	c0.14,1.07-0.78,1.67-1.54,2.25c-4.97,3.69-9.54,7.77-13.62,12.55c-8.76,10.27-13.58,22.3-15.51,35.64
	c-1.78,12.16-1.16,24.2,2.99,35.6c-0.64-9.79,1.26-19.48,4.93-28.78c4.63-11.79,11.44-21.81,21.46-29.56
	c13.64-10.58,28.81-14.78,45.44-11.36c15.03,3.09,27.31,11.28,36.44,24.22c3.09,4.37,6.05,8.8,7.53,13.38
	c-0.96-4.39-1.76-9.48-3.25-14.43c-4.71-15.63-13.5-28.2-26.71-37.21c-13.52-9.21-28.39-10.76-43.96-7.24
	c-4.83,1.09-5.63,0.41-4.49-4.58c4.27-18.72,11.92-35.58,24.62-50.01c6.33-7.17,13.32-13.44,21.28-18.28
	c9.12-5.57,19.01-9.36,29.71-10.78c9.44-1.26,18.75-0.7,28.03,1.09c5.09,0.99,10.08,2.35,14.65,5.03c1.48,0.87,3.01,1.83,5.39,1.98
	c-1.2-5.61-1.18-11.15-0.92-16.68c0.88-19.56,7.51-36.57,21.38-50.28c8.86-8.74,19.39-13.38,31.46-15.73
	c12.42-2.41,22.94,2.47,34.34,6.49c0.14-0.02,0.2-0.58,0.2-1.03c-0.1-7.52,0.6-15.01,0.88-22.51c0.64-15.98,1.06-31.95,1.76-47.93
	c0.44-10.04,1.08-20.08,0.94-30.16c-0.02-1.57-0.06-3.15,0.02-4.72c0.22-4.29,1.24-5.28,5.35-5.44c3.73-0.14,7.53,0.47,11.22-0.64
	c7.51-0.52,15.01-0.19,22.52-0.21C327.56,574.03,328.76,574.11,329.65,575.08z"/>
<path class="st1" d="M303.04,575.27c-3.53,1.32-7.19,0.54-10.78,0.54c-2.89,0-4.15,1.01-4.03,3.98c0.48,11.15-0.58,22.26-0.86,33.39
	c-0.34,13.89-0.88,27.79-1.44,41.68c-0.42,10.37-0.58,20.76-1.28,31.13c-0.06,1.01,0.58,2.41-0.58,2.97
	c-1.12,0.54-1.32-1.11-2.08-1.5c-5.91-3.01-12.1-5.38-18.69-5.85c-2.4-0.16-4.17-2.12-6.67-1.61c-9.62,1.98-19.29,3.07-28.09,8.68
	c-9.78,6.25-17.27,14.35-22.62,24.55c-5.27,10.06-8.52,20.88-8.7,32.49c-0.08,6.27-0.3,12.55,1.28,18.92
	c-4.77-0.87-8.37-4-12.62-5.4c-17.51-5.77-35.16-5.94-52.33,0.49c-10,3.75-19.21,9.46-27.25,17.17
	c-9.76,9.34-17.65,19.89-23.44,32.2c-4.01,8.51-6.75,17.44-8.76,26.67c-0.58,2.68,0.48,2.64,2.22,2.14
	c5.91-1.73,11.94-2.31,18.05-2.1c12.92,0.43,24.18,5.05,34.12,13.69c12.52,10.9,19.8,24.76,23.22,41.02
	c0.64,3.01,1.38,6.12,0.96,9.87c-3.87-8.37-8.05-15.96-14.13-22.22c-5.25-5.4-11.12-9.77-17.85-13.13
	c-8.56-4.27-17.47-5.67-26.85-5.26c-10.98,0.49-20.5,4.7-29.31,11.23c-3.43,2.54-6.61,5.24-9.5,8.47
	c-9.48,10.64-14.81,23.19-17.27,37.29c-0.92,5.3-0.36,10.6-0.76,16.08c-5.23-8.7-8.37-29.07-2.56-49.66
	c4.75-16.86,14.61-29.89,29.27-39.64c-9.12-2.76-17.91-5.4-27.33-3.53c-8.01,1.57-16.01,3.17-23.4,6.82
	c-10.24,5.07-19.21,12.16-26.29,21.23c-11.42,14.59-18.39,31.25-20.94,50.07c-2.93,21.58,0.34,41.87,10.12,60.98
	c4.23,8.27,8.94,16.41,16.73,21.91c0.96,0.95,0.92,1.94,0.08,2.95c-3.29-0.02-6.59-0.02-9.88-0.04c-0.16-2.51,0.16-5.05-0.66-7.52
	c-1.86-5.61-5.11-8.2-10.94-8.18c-10.16,0.02-20.32,0.19-30.49,0.23c-1.24,0-2.58,0.45-3.71-0.49c3.39-2.14,7.11-0.76,10.66-1.07
	c3.39,0.08,6.81,0.02,10.22,0.08c2.04,0.04,2.85-0.35,1.78-2.68c-8.6-18.82-12.1-38.78-10.76-59.41
	c1.42-21.77,7.67-42.03,19.8-60.21c8.11-12.14,17.93-22.28,30.17-30.01c11.72-7.4,24.18-11.98,37.97-13.11
	c6.65-0.56,13.12,0,19.61,0.91c2.93,0.41,4.45-0.14,5.37-3.36c4.01-14.08,10.26-27.13,18.77-38.86c10.32-14.22,23-25.66,38.59-33.66
	c7.49-3.83,15.37-5.73,23.3-7.98c10.12-2.87,20.22-2.19,30.41-1.34c1.54,0.12,2.97,0.64,4.43,1.09c3.45,1.09,4.39,0.52,4.97-3.24
	c1.78-11.36,5.09-22.14,10.66-32.16c6.43-11.52,14.53-21.31,25.47-28.59c12.18-8.1,25.22-12.7,39.83-12.06
	c2.95,0.12,5.83,0.74,8.76,0.97c1.6,0.12,2.52-0.31,2.6-2.06c0.1-2.06,0.76-4.08,0.68-6.14c-0.4-10.43,0.44-20.84,0.86-31.25
	c0.6-14.88,0.58-29.79,1.98-44.63c0.14-1.4,0-2.99,1.52-3.85c8.58-1.92,17.27-1.2,25.93-1.13
	C301.5,574.11,302.44,574.38,303.04,575.27z"/>
<path class="st2" d="M224.08,430.39c-0.08,10.16,1.44,20.16,2.6,30.2c1.5,13.03,3.55,25.97,5.85,38.86
	c1.84,10.31,3.77,20.59,6.33,30.74c1.7,6.76,2.93,13.65,5.43,20.18c1,1.36,0.36,2.8,0.1,4.18c-2.76,14.64-6.05,29.15-9.06,43.74
	c-0.96,4.7-3.13,6.7-7.79,6.89c-14,0.54-13.7-0.21-16.41-12.55c-6.75-30.61-13.38-61.24-20.44-91.79c-1.4-6-1.56-11.98-1.46-18.04
	c0.14-3.26,1.14-6.35,1.98-9.46c0.34-1.3,0.92-2.47,2.24-3.03c1.34-3.96,4.03-7.09,6.53-10.2c2.46-3.05,5.03-6.04,7.31-9.24
	C212.84,444.04,218.45,437.22,224.08,430.39z"/>
<path class="st2" d="M492.19,450.82c4.53,6.29,10.44,11.61,12.78,19.44c2.3,2.37,2.68,5.42,2.84,8.55c0,1.69-0.2,3.4,0.32,5.07
	c0.12,0.39,0.18,0.78,0.2,1.18c-0.72,9.73-3.57,19.03-5.67,28.47c-5.87,26.37-12.06,52.63-18.01,78.97c-0.4,1.77-0.76,3.57-1.5,5.24
	c-1.5,3.38-3.87,5.4-7.65,5.36c-2-0.02-3.99,0.02-5.99,0c-5.31-0.06-6.77-1.13-8.31-6.47c-1.62-5.59-2.46-11.36-3.59-17.07
	c-2.6-13.07-5.31-26.12-7.83-39.21c-0.24-1.3-0.64-2.6-0.4-3.96c3.63-12.16,6.01-24.61,8.48-37.06c4.03-20.28,6.79-40.75,8.92-61.33
	c0.42-3.96,0.42-7.96,0.94-11.91c0.18-1.3-0.02-2.7,1.04-3.73c6.89,8.55,13.78,17.11,20.68,25.64
	C490.27,449.03,491.27,449.89,492.19,450.82z"/>
<path class="st8" d="M468.77,422.37c-0.3,10.25-1.46,20.41-2.66,30.57c-1.56,13.38-3.51,26.72-5.89,39.95
	c-1.88,10.41-4.25,20.74-6.57,31.07c-0.96,4.29-1.46,8.74-3.75,12.6c-0.6-0.21-1-0.66-1.2-1.24c-1.96-5.24-5.49-9.09-10.02-12.04
	c-0.26-4.35,1.7-8.2,2.78-12.22c7.37-27.52,12.3-55.51,15.89-83.8c0.62-4.78,1.08-9.59,1.62-14.39c1.04-1.07,1.74-0.54,2.52,0.45
	C463.88,416.37,466.33,419.36,468.77,422.37z"/>
<path class="st0" d="M417.78,688.17c-1.92,1.05-1.86-0.54-1.88-1.73c-0.08-3.98-0.58-8-0.56-11.91"/>
<path class="st9" d="M429.24,535.83c-2.12,9.48-4.35,18.92-6.29,28.45c-1.84,9.01-2.48,9.75-11.3,10.25c-4.95,0-9.88,0-14.83,0
	c-14.35,0.08-28.73,0.16-43.08,0.25c0.04-12.95,0.06-25.87,0.1-38.82c23.74-0.12,47.48-0.25,71.21-0.35
	C426.44,535.59,427.84,535.75,429.24,535.83z"/>
<path class="st9" d="M274.09,575.74c-2.87-1.17-4.31-3.38-4.93-6.51c-2.2-10.88-4.55-21.75-6.83-32.61
	c22.48-0.12,44.94-0.27,67.42-0.39c-0.02,12.95-0.06,25.91-0.08,38.86c-8.86,0.06-17.75,0.12-26.61,0.19
	C293.4,575.1,283.74,575.06,274.09,575.74z"/>
<path class="st1" d="M453.45,887.39c1.06-4.78,0.48-9.65,0.92-14.45c0.46-5.11,0.1-10.39-0.52-15.52
	c-1.44-11.87-3.99-23.48-8.8-34.49c-6.51-14.88-14.87-28.24-27.17-38.86c-6.85-5.92-14.08-10.84-22.06-15.03
	c-8.56-4.49-17.61-5.87-26.73-7.83c-4.43-0.95-8.78-1.55-13.06-1.07c-12.46,1.38-24.7,3.5-36.16,9.56
	c-9.36,4.95-17.81,11.11-25.22,18.53c-7.11,7.11-13.14,15.34-17.59,24.61c-0.24,0.52-0.42,1.17-1.54,1.17
	c0.3-4.47,1.56-8.72,2.72-12.9c4.79-17.42,12.84-32.9,24.98-46.28c8.52-9.4,18.09-16.78,29.21-22.45c7.67-3.9,15.81-5.44,23.94-7.57
	c8.03-2.08,16.07-2.39,23.78-0.91c10.16,1.96,20.32,4.35,29.81,9.52c13.52,7.38,24.64,17.38,33.82,29.73
	c12.08,16.24,18.91,34.88,21.38,55.06c2.42,19.69,0.44,38.98-6.51,57.66C457.15,879.84,455.29,883.53,453.45,887.39z"/>
</svg>
