<?xml version="1.0" encoding="utf-8"?>
<!-- Generator: Adobe Illustrator 25.2.1, SVG Export Plug-In . SVG Version: 6.00 Build 0)  -->
<svg version="1.1" id="Layer_1" xmlns="http://www.w3.org/2000/svg" xmlns:xlink="http://www.w3.org/1999/xlink" x="0px" y="0px"
	 viewBox="0 0 300 300" style="enable-background:new 0 0 300 300;" xml:space="preserve">
<style type="text/css">
	.st0{fill:#53B0F3;}
	.st1{fill:#5257FF;}
	.st2{fill:#3E235F;}
	.st3{fill:#7152A6;}
	.st4{fill:#C3EAF1;}
</style>
<g>
	<g>
		<rect x="22.99" y="191.98" class="st0" width="41.23" height="78.45"/>
		<rect x="86.43" y="144.25" class="st1" width="41.23" height="126.17"/>
		<rect x="149.87" y="68.45" class="st2" width="41.23" height="201.97"/>
		<rect x="213.31" y="29.73" class="st3" width="41.24" height="240.69"/>
	</g>
	<g>
		<path class="st4" d="M235.63,297c3.89-9.46,6.09-20.09,6.09-31.32c0-39.48-26.97-71.48-60.25-71.48c-33.27,0-60.25,32-60.25,71.48
			c0,11.24,2.19,21.86,6.09,31.32H235.63z"/>
		<path class="st4" d="M141.94,297c0.97-4.37,1.53-8.93,1.53-13.66c0-29.72-20.31-53.82-45.36-53.82
			c-25.05,0-45.36,24.1-45.36,53.82c0,4.73,0.57,9.29,1.53,13.66H141.94z"/>
		<path class="st4" d="M298.47,297c0.97-4.37,1.53-8.93,1.53-13.66c0-29.72-20.31-53.82-45.36-53.82
			c-25.05,0-45.36,24.1-45.36,53.82c0,4.73,0.57,9.29,1.53,13.66H298.47z"/>
		<path class="st4" d="M62.19,297c0.68-3.06,1.07-6.26,1.07-9.57c0-20.81-14.22-37.69-31.77-37.69s-31.76,16.87-31.76,37.69
			c0,3.31,0.4,6.51,1.07,9.57H62.19z"/>
		<path class="st4" d="M170.37,297c-6.46-20.37-22.99-34.89-42.42-34.89c-19.43,0-35.96,14.52-42.42,34.89H170.37z"/>
		<path class="st4" d="M267.26,297c-8.52-32.73-35.8-54.53-65.46-50.17c-24.44,3.6-43.66,23.97-50.52,50.17H267.26z"/>
	</g>
</g>
</svg>
